<?xml version="1.0" encoding="utf-8"?>
<!-- Generator: Adobe Illustrator 24.2.3, SVG Export Plug-In . SVG Version: 6.00 Build 0)  -->
<svg version="1.1" id="Layer_1" xmlns="http://www.w3.org/2000/svg" xmlns:xlink="http://www.w3.org/1999/xlink" x="0px" y="0px"
	 viewBox="0 0 841.89 595.28" style="enable-background:new 0 0 841.89 595.28;" xml:space="preserve">
<style type="text/css">
	.st0{fill:#75CBED;}
	.st1{fill:#65ACC8;}
	.st2{fill:#F8F7F7;}
</style>
<path class="st0" d="M441.01,252.27c-25.12-0.04-45.57,20.97-45.08,45.11c-0.46,24.1,19.14,45.3,44.91,45.36c0.06,0,0.11,0,0.17,0
	V252.27z"/>
<path class="st1" d="M440.88,252.27c25.12-0.04,45.57,20.97,45.08,45.11c0.46,24.1-19.14,45.3-44.91,45.36c-0.06,0-0.11,0-0.17,0
	V252.27z"/>
<path class="st0" d="M687.27,274.77c-5.68-11.32-14.47-20-24.47-27.51c-20.32-15.25-43.5-24.58-67.48-32.14
	c-7.68-2.42-7.61-2.2-5.87-10.07c4.9-22.14,8.36-44.42,6.67-67.24c-0.79-10.67-2.58-21.08-6.45-31.1
	c-9.24-23.87-28.99-36.39-54.36-34c-14.77,1.39-28.19,7.11-40.98,14.31c-19.02,10.71-35.81,24.39-51.52,39.44
	c-1.43,1.37-2.2,1.43-3.65,0.02c-9.45-9.15-19.39-17.77-30.05-25.49c-18.48-13.38-37.83-25.04-61.03-28.06
	c-11.57-1.51-22.78,0.02-33.08,6.02c-12.26,7.14-19.6,18.11-23.97,31.26c-5.28,15.88-6.22,32.22-5.3,48.84
	c0.97,17.49,4.01,34.6,8.09,51.57c0.45,1.89-0.23,2.43-1.94,2.94c-18.89,5.61-37.34,12.33-54.6,21.99
	c-14.09,7.89-27.14,17.08-36.96,30.18c-9.7,12.94-13.84,27.28-10.04,43.32c2.64,11.15,8.9,20.33,16.77,28.41
	c9.94,10.21,21.75,17.9,34.31,24.47c15.96,8.35,32.75,14.59,50.02,19.58c2.45,0.71,2.79,1.65,2.21,4.05
	c-4.84,19.87-8.02,39.99-8.28,60.27c0.12,12.93,1.28,25.5,5.2,37.66c3.88,12.04,9.92,22.7,20.46,30.19
	c13.32,9.47,28.15,10.87,43.7,7.59c16.61-3.51,31.3-11.35,45.32-20.58c14.07-9.27,26.83-20.16,39.06-31.7
	c1.3-1.23,2.06-1.77,3.67-0.23c11.33,10.81,23.19,21.01,36.15,29.83c15.96,10.86,32.7,20.11,52.08,23.37
	c11.02,1.85,21.79,1.06,32.08-3.64c15.17-6.93,23.55-19.51,28.39-34.8c4.96-15.65,5.78-31.74,4.78-48.05
	c-1.03-16.7-3.82-33.08-7.65-49.32c-0.93-3.96-1.29-3.59,2.85-4.82c19.27-5.73,38-12.81,55.48-22.85
	c13.07-7.5,25.2-16.22,34.37-28.42C694.15,312.86,697.14,294.44,687.27,274.77z M457.36,142.34c17.02-16.19,34.93-31.19,56.4-41.29
	c8.29-3.9,16.91-6.86,26.17-7.06c14.29-0.32,24.08,6.28,29.48,19.56c3.28,8.07,4.85,16.51,5.34,25.17c0.19,3.35,0.8,6.67,0.57,8.58
	c-0.49,20.7-3.35,39.59-8,58.23c-0.42,1.67-0.98,1.87-2.55,1.51c-13.73-3.11-27.59-5.49-41.52-7.45
	c-7.29-1.03-14.64-1.73-21.97-2.43c-1.61-0.15-2.66-0.71-3.56-1.98c-12.41-17.57-25.75-34.38-40.46-50.1
	C456.2,143.94,456.3,143.34,457.36,142.34z M337.12,322.9c9.36,18.15,19.26,35.16,30.04,52.16c-15.13-1.81-29.67-4.36-44.11-7.52
	c-1.04-0.23-2.28-0.28-1.67-2.17C325.92,351.24,331.06,337.33,337.12,322.9z M332.2,260.31c-3.7-9.47-7.12-19.03-10.3-28.69
	c-0.8-2.44-0.78-3.58,2.28-4.2c13.04-2.63,26.12-5.05,39.32-6.71c1.03-0.13,2.05-0.33,3.74-0.61c-10.9,17.15-20.74,34.14-30,52.02
	C335.06,268.07,333.7,264.15,332.2,260.31z M366,331.34c-5.7-10.12-10.9-20.5-16.14-30.87c-1.01-2.01-1.07-3.63-0.08-5.62
	c8.83-17.8,18.31-35.25,28.7-52.19c4.87-7.93,9.91-15.75,15.13-23.46c0.82-1.21,1.67-1.84,3.22-1.94
	c17.81-1.18,35.64-1.96,53.48-1.54c11.69,0.27,23.38,0.6,35.05,1.55c1.46,0.12,2.2,0.8,2.95,1.9c9.53,14.07,18.48,28.49,26.81,43.3
	c5.97,10.63,11.58,21.44,17.05,32.33c0.95,1.9,1.03,3.38,0.07,5.35c-12.76,26.18-27.27,51.34-43.57,75.47
	c-1.2,1.78-2.49,2.44-4.65,2.57c-14.47,0.88-28.94,1.39-38.25,1.24c-16.99-0.1-28.8,0-40.59-0.77c-2.87-0.19-5.73-0.46-8.6-0.54
	c-1.36-0.04-2.03-0.74-2.72-1.75C383.87,361.78,374.66,346.73,366,331.34z M544.88,322.75c2.96,7.52,5.74,14.22,8.23,21.03
	c2.54,6.92,4.74,13.97,7.24,20.9c0.67,1.87,0.21,2.55-1.59,2.94c-11.97,2.56-24.02,4.71-36.14,6.45c-2.45,0.35-4.91,0.63-7.83,1
	C525.5,358.1,535.46,341.11,544.88,322.75z M544.84,272.32c-9.43-18.03-19.22-35.14-30.15-52.23c7.18,1.06,13.8,1.9,20.37,3.05
	c7.63,1.33,15.2,3.08,22.84,4.32c2.99,0.49,2.93,1.74,2.19,4.01C555.62,245.05,550.72,258.46,544.84,272.32z M438.93,161.34
	c1.4-1.65,2.34-1.95,3.98-0.13c9.46,10.44,18.39,21.33,27,32.47c0.15,0.2,0.16,0.5,0.37,1.21c-19.59-0.92-38.97-0.96-58.35,0.01
	c-0.13-0.25-0.25-0.51-0.38-0.76c4.97-6.17,9.86-12.4,14.93-18.49C430.53,170.8,434.83,166.16,438.93,161.34z M307.28,136.63
	c1.02-9.76,2.73-19.33,7.79-28.01c5.8-9.95,14.44-14.74,26.7-14.73c8.23,0.22,16.73,2.78,24.92,6.45
	c15,6.73,28.26,16.17,40.82,26.67c5.75,4.8,11.27,9.84,16.73,14.95c1.51,1.41,1.32,2.17-0.01,3.59
	c-13.97,14.95-26.83,30.82-38.46,47.63c-2.65,3.83-5.88,4.06-9.47,4.41c-19.74,1.9-39.28,5.06-58.64,9.37
	c-2.13,0.47-2.73-0.01-3.22-2.07c-3.07-12.86-5.45-25.83-6.73-39C306.77,156.14,306.26,146.39,307.28,136.63z M300.9,359.34
	c-0.51,1.64-1.09,2.38-3.04,1.79c-21.2-6.37-41.81-14.11-60.45-26.33c-8.07-5.29-15.45-11.43-20.97-19.47
	c-8.48-12.36-8.08-24.78,0.96-36.75c7.02-9.28,16.18-16.03,26.05-21.88c17.12-10.14,35.64-16.94,54.61-22.62
	c0.37-0.11,0.74-0.19,1.54-0.4c1.11-0.16,0.91,1.24,1.16,1.96c2.5,7.15,4.83,14.35,7.36,21.49c4.56,12.84,9.79,25.41,15.48,37.78
	c0.83,1.81,0.97,3.33,0.14,5.15C314.88,319.34,307.23,339.09,300.9,359.34z M421.99,455.51c-11.43,10.56-23.29,20.59-36.39,29.05
	c-11.43,7.38-23.38,13.64-36.95,16.07c-11.51,2.06-22.08,0.48-30.11-8.98c-5.15-6.06-7.8-13.4-9.48-21.06
	c-1.73-7.89-2.25-15.92-2.4-23.49c0.38-18.47,2.99-36.15,7.06-53.64c1.33-5.68,1.35-5.62,6.99-4.43c15.27,3.24,30.64,5.88,46.16,7.6
	c4.95,0.55,9.89,1.17,14.84,1.64c1.15,0.11,1.68,0.76,2.24,1.55c11.69,16.55,24.38,32.3,37.83,47.45c0.13,0.14,0.25,0.29,0.38,0.43
	C425.89,451.92,425.89,451.91,421.99,455.51z M438.78,433.88c-9.07-10.3-17.9-20.8-26.29-31.66c-0.28-0.36-0.44-0.81-1.01-1.87
	c19.86,1.02,39.13,1.03,58.8,0.01c-1.1,2.87-3.06,4.61-4.59,6.6c-7.13,9.29-14.86,18.08-22.53,26.92
	C441.47,435.84,440.49,435.83,438.78,433.88z M570.16,479.67c-3.92,10.13-9.92,18.17-21.2,20.86c-7.02,1.68-13.91,0.75-20.73-1.01
	c-11.37-2.94-21.63-8.33-31.42-14.65c-14.16-9.14-26.94-20.01-39.16-31.56c-1.35-1.27-1.38-1.97-0.08-3.37
	c14.36-15.51,27.58-31.95,39.69-49.25c2.09-2.99,4.78-2.57,7.27-2.82c20.12-2,40.05-5.21,59.79-9.56c2.27-0.5,2.79,0.13,3.23,2.06
	c2.95,12.98,5.52,26.02,6.68,39.32c0.5,5.73,0.94,11.46,1.06,17.88C574.92,458.04,574.23,469.13,570.16,479.67z M661.28,320.65
	c-10.95,12.04-24.84,19.8-39.35,26.55c-12.1,5.62-24.69,10-37.48,13.81c-2.1,0.62-2.85,0.17-3.48-1.84
	c-6.25-20.07-13.84-39.64-22.61-58.74c-0.91-1.98-0.9-3.62,0.04-5.68c8.74-19.01,16.26-38.5,22.52-58.47c0.69-2.21,1.33-2.72,3.69-2
	c13.98,4.21,27.69,9.12,40.85,15.45c11.98,5.76,23.41,12.48,32.96,21.85c6.14,6.03,11.3,12.84,12.78,21.7
	c0.24,1.41,0.32,2.85,0.44,3.92C671.45,306.73,667.24,314.11,661.28,320.65z"/>
<g>
	<path class="st2" d="M445.05,302.62c-1.09,0.98-2.19,1.95-3.27,2.94c-4.75,4.35-9.51,8.71-14.24,13.08c-0.43,0.39-0.65,0.46-1.1,0
		c-2.7-2.71-5.43-5.39-8.17-8.06c-0.3-0.3-0.3-0.44,0.01-0.72c6.55-5.97,13.08-11.94,19.62-17.92c2.49-2.28,4.96-4.57,7.43-6.86
		c1.37-1.25,2.76-2.48,4.11-3.75c0.36-0.34,0.55-0.3,0.88,0.03c2.73,2.71,5.47,5.41,8.23,8.09c0.35,0.34,0.34,0.49-0.01,0.82
		c-4.41,4.01-8.8,8.04-13.2,12.06C445.24,302.42,445.15,302.53,445.05,302.62z"/>
	<path class="st2" d="M459.95,272.32c1.14-0.03,2.06,0.52,2.87,1.19c1.62,1.33,3.09,2.81,4.53,4.31c1.03,1.08,0.91,2.97-0.28,4.11
		c-2.12,2.03-4.31,3.99-6.45,6c-0.32,0.3-0.47,0.1-0.67-0.1c-1.42-1.4-2.85-2.79-4.27-4.19c-1.32-1.3-2.64-2.61-3.98-3.89
		c-0.35-0.34-0.41-0.52,0-0.89c2.08-1.88,4.12-3.79,6.16-5.7C458.44,272.62,459.11,272.31,459.95,272.32z"/>
	<path class="st2" d="M416.47,311.86c3.03,2.98,6,5.89,9.03,8.87c-2.5,0.48-4.91,0.95-7.32,1.41c-1.3,0.25-2.6,0.51-3.91,0.77
		c-0.37,0.07-0.68,0.11-0.54-0.42C414.65,318.98,415.54,315.47,416.47,311.86z"/>
</g>
</svg>
